<svg xmlns="http://www.w3.org/2000/svg" xmlns:xlink="http://www.w3.org/1999/xlink" width="500" zoomAndPan="magnify" viewBox="0 0 375 374.999991" height="500" preserveAspectRatio="xMidYMid meet" version="1.0"><metadata/><defs><clipPath id="52e3a521af"><path d="M 37.5 37.5 L 337.5 37.5 L 337.5 337.5 L 37.5 337.5 Z M 37.5 37.5 " clip-rule="nonzero"/></clipPath></defs><g clip-path="url(#52e3a521af)"><path fill="#000000" d="M 187.519531 337.519531 C 270.132812 337.519531 337.519531 270.132812 337.519531 187.519531 C 337.519531 104.898438 270.132812 37.511719 187.519531 37.511719 C 104.898438 37.511719 37.511719 104.898438 37.511719 187.519531 C 37.511719 270.132812 104.898438 337.519531 187.519531 337.519531 " fill-opacity="1" fill-rule="evenodd"/></g><path fill="#fc6011" d="M 120.882812 242.878906 C 120.882812 248.703125 116.152344 253.429688 110.328125 253.429688 C 104.503906 253.429688 99.777344 248.703125 99.777344 242.878906 L 99.777344 157.890625 C 99.777344 147.898438 103.855469 138.824219 110.425781 132.253906 C 117 125.679688 126.074219 121.597656 136.066406 121.597656 C 146.039062 121.597656 155.117188 125.679688 161.6875 132.253906 C 168.257812 138.824219 172.339844 147.898438 172.339844 157.890625 L 172.339844 217.113281 C 172.339844 221.207031 174.070312 224.992188 176.855469 227.78125 C 179.628906 230.550781 183.414062 232.28125 187.519531 232.28125 C 191.671875 232.28125 195.472656 230.578125 198.230469 227.820312 C 200.988281 225.0625 202.691406 221.277344 202.691406 217.113281 L 202.691406 157.890625 C 202.691406 147.898438 206.769531 138.824219 213.34375 132.253906 C 219.914062 125.679688 228.988281 121.597656 238.980469 121.597656 C 248.925781 121.597656 258.003906 125.695312 264.589844 132.277344 C 271.160156 138.851562 275.253906 147.925781 275.253906 157.890625 L 275.253906 242.878906 C 275.253906 248.703125 270.527344 253.429688 264.699219 253.429688 C 258.875 253.429688 254.148438 248.703125 254.148438 242.878906 L 254.148438 157.890625 C 254.148438 153.753906 252.429688 149.964844 249.660156 147.191406 C 246.886719 144.433594 243.101562 142.707031 238.980469 142.707031 C 234.816406 142.707031 231.015625 144.421875 228.257812 147.179688 C 225.515625 149.925781 223.796875 153.722656 223.796875 157.890625 L 223.796875 217.113281 C 223.796875 227.105469 219.71875 236.164062 213.144531 242.734375 C 206.574219 249.308594 197.5 253.390625 187.519531 253.390625 C 177.585938 253.390625 168.511719 249.28125 161.925781 242.691406 C 155.34375 236.109375 151.234375 227.035156 151.234375 217.113281 L 151.234375 157.890625 C 151.234375 153.722656 149.53125 149.925781 146.773438 147.179688 C 144.015625 144.421875 140.214844 142.707031 136.066406 142.707031 C 131.898438 142.707031 128.101562 144.421875 125.34375 147.179688 C 122.597656 149.925781 120.882812 153.722656 120.882812 157.890625 L 120.882812 242.878906 " fill-opacity="1" fill-rule="nonzero"/></svg>